<svg viewBox="0 0 118 86" fill="none" xmlns="http://www.w3.org/2000/svg">
<path d="M115.532 42.2608H107.626C106.908 42.2608 105.711 42.2179 105.711 41.5003V33.5209C105.711 32.8033 105.745 31.8608 105.027 31.8608H97.0854C96.3663 31.8608 95.3108 31.6384 95.3108 30.9209V22.9843C95.3108 22.2655 95.2042 21.4608 94.4864 21.4608H86.5673C85.8495 21.4608 84.911 21.0993 84.911 20.3818V12.4063C84.911 11.6888 84.5079 11.1129 83.7905 11.1193C81.1967 11.1401 78.5398 11.1426 75.8472 11.1426C75.1298 11.1426 74.5121 11.7251 74.5121 12.4426V20.348C74.5108 21.0681 74.1805 21.4608 73.4617 21.4608H44.2965C43.579 21.4608 43.3111 21.0681 43.3111 20.3505V12.4375C43.3111 11.72 42.5728 11.1375 41.8552 11.1375C39.1889 11.1375 36.6864 11.135 34.1189 11.1142C33.3986 11.1091 32.9111 11.6849 32.9111 12.4025V20.4521C32.9111 21.1711 31.9867 21.461 31.2679 21.461H23.2833C22.5657 21.461 22.5112 22.3332 22.5112 23.0508V30.9978C22.5112 31.7166 21.4008 31.861 20.6833 31.861H12.7261C12.0086 31.861 10.8112 32.8789 10.8112 33.5978V41.5549C10.8112 42.2725 10.8437 42.2608 10.1261 42.2608H2.29109C1.57354 42.2608 0.411194 43.4359 0.411194 44.1534V72.9847C0.411194 73.7037 1.57333 74.7605 2.29109 74.7605H10.1223C10.8399 74.7605 10.8114 73.701 10.8114 72.9834V54.6339C10.8114 53.9149 12.0048 53.9606 12.7225 53.9606H20.7589C21.4765 53.9606 22.5114 53.9164 22.5114 54.6339V73.1005C22.5114 73.818 22.8661 74.3992 23.5851 74.3992C26.2527 74.3992 28.9464 74.403 31.5151 74.4223C32.2327 74.4289 32.9114 73.8531 32.9114 73.1353V65.2068C32.9114 64.4891 33.0726 64.3605 33.7914 64.3605H84.0376C84.7553 64.3605 85.3374 64.7168 85.3374 65.4343C85.3374 68.1021 85.3335 70.793 85.3129 73.3904C85.3076 74.1092 85.8822 74.7605 86.6 74.7605H94.517C95.2331 74.7605 95.311 73.8114 95.311 73.0939V54.6522C95.311 53.9344 96.398 53.9606 97.1166 53.9606H105.196C105.914 53.9606 107.011 53.9344 107.011 54.6522V72.9834C107.011 73.701 107.08 74.7605 107.798 74.7605H115.53C116.247 74.7605 117.411 73.7025 117.411 72.9847V44.1001C117.411 43.3815 116.249 42.2608 115.532 42.2608ZM43.3113 41.4404C43.3113 42.1582 42.4976 42.2608 41.78 42.2608H33.8383C33.1195 42.2608 32.9116 42.1593 32.9116 41.4419V33.5132C32.9116 32.7957 33.1208 31.861 33.8398 31.861H41.7789C42.4965 31.861 43.3115 32.7957 43.3115 33.5147L43.3113 41.4404ZM84.9115 41.4615C84.9115 42.179 84.6942 42.261 83.9768 42.261H76.0494C75.3304 42.261 74.5115 42.179 74.5115 41.46V33.5274C74.5115 32.8112 75.3316 31.8608 76.0494 31.8608H83.9768C84.6942 31.8608 84.9115 32.8097 84.9115 33.5274V41.4615Z" fill="#42D9C8"/>
<path d="M52.3138 74.4918C50.3575 74.4931 48.3841 74.4956 46.46 74.4903C42.2531 74.4774 38.0217 74.4593 33.815 74.4421C33.0974 74.4395 32.5084 75.0195 32.515 75.7385C32.5358 78.3383 32.532 81.1074 32.533 83.7086C32.533 84.4262 33.1089 85.162 33.8267 85.162H52.2151C52.9326 85.1607 53.7113 84.269 53.7113 83.5514V75.7931C53.7113 75.074 53.0314 74.4903 52.3138 74.4918ZM84.4941 74.4631C84.2925 74.4786 84.1833 74.6231 83.9779 74.6231C77.7883 74.6269 71.6968 74.7607 65.5075 74.7607H64.9185C64.5937 74.7607 64.1115 75.0728 64.1115 75.7903V83.5682C64.1115 84.2858 64.9123 85.1607 65.6312 85.1607H84.0023C84.7201 85.1607 84.9113 84.2845 84.9113 83.5669V75.6941C84.9115 74.9765 84.8335 74.437 84.4941 74.4631ZM23.398 11.0611H31.2696C31.9871 11.0611 32.5617 10.4994 32.5566 9.78187C32.5358 7.18188 32.5333 4.56489 32.532 1.96362C32.5318 1.61855 32.3947 1.28767 32.1507 1.04367C31.9067 0.799667 31.5758 0.662514 31.2307 0.662346H23.3982C22.6807 0.661071 22.5116 1.26689 22.5116 1.98571V9.80396C22.5114 10.5213 22.6803 11.0611 23.398 11.0611ZM86.4075 11.1312C89.0075 11.1103 91.5168 11.1078 94.1181 11.1065C94.8367 11.1065 95.3113 10.5228 95.3113 9.80524V1.9702C95.3113 1.25266 95.1371 0.661072 94.4197 0.661072H86.6038C85.8865 0.661072 84.9115 1.25499 84.9115 1.97275V9.84539C84.9115 10.5629 85.6898 11.1375 86.4075 11.1312Z" fill="#42D9C8"/>
</svg>
