<svg viewBox="0 0 106 78" fill="none" xmlns="http://www.w3.org/2000/svg">
<path d="M105.235 60.9272C104.99 47.2649 103.376 33.4492 100.729 19.5047C98.5737 9.81635 90.8181 1.18744 78.4259 0.555458C69.2775 0.179132 67.5084 5.39043 57.1431 5.29021C54.3043 5.2718 51.4675 5.2718 48.6287 5.29021C38.2613 5.39043 36.4881 0.179132 27.3438 0.555458C14.9496 1.18744 6.95264 9.79385 5.03215 19.5047C2.38355 33.4492 0.769848 47.2628 0.526464 60.9251C0.467151 70.4376 9.85894 76.7656 16.056 77.1992C28.0269 78.1032 37.5373 56.9941 44.7836 56.9921C50.1851 57.0228 55.5846 57.0248 60.9861 56.9921C68.2345 56.9921 77.7367 78.1052 89.7157 77.2012C95.9108 76.7676 105.546 70.3967 105.237 60.9272H105.235ZM39.5703 34.2694H33.9868V39.8529C33.9868 42.209 32.0765 44.1193 29.7204 44.1193C27.3642 44.1193 25.454 42.209 25.454 39.8529V34.2694H19.8704C17.5143 34.2694 15.604 32.3591 15.604 30.003C15.604 27.6468 17.5143 25.7366 19.8704 25.7366H25.454V20.153C25.454 17.7969 27.3642 15.8867 29.7204 15.8867C32.0765 15.8867 33.9868 17.7969 33.9868 20.153V25.7366H39.5703C41.9264 25.7366 43.8367 27.6468 43.8367 30.003C43.8367 32.3591 41.9264 34.2694 39.5703 34.2694ZM74.0471 44.1172C70.7072 44.2072 67.9297 41.5689 67.8397 38.231C67.7518 34.8809 70.3922 32.0994 73.73 32.0135C77.072 31.9296 79.8535 34.5659 79.9394 37.9079C80.0233 41.2498 77.387 44.0313 74.0471 44.1172ZM84.1199 27.9904C80.78 28.0845 77.9964 25.4441 77.9044 22.1042C77.8206 18.7582 80.4569 15.9807 83.7988 15.8887C87.1449 15.8008 89.9223 18.4412 90.0123 21.7831C90.1002 25.123 87.4578 27.9066 84.1199 27.9904Z" fill="#42D9C8"/>
</svg>
