<svg viewBox="0 0 50 60" fill="none" xmlns="http://www.w3.org/2000/svg">
<path d="M48.5233 29.5979H31.6506V36.9646H36.6616L48.5233 29.5979Z" fill="#42D9C8"/>
<path fill-rule="evenodd" clip-rule="evenodd" d="M23.6672 52.7746C16.7595 52.7746 11.3617 51.0556 7.47384 47.6179C3.62369 44.1423 1.69861 39.0046 1.69861 32.2046C1.69861 25.4423 3.66143 20.3423 7.58708 16.9046C11.5505 13.429 17.288 11.6912 24.7996 11.6912H46.3152V19.0579H25.4224C20.4775 19.0579 16.8161 20.0967 14.4381 22.1746C12.0978 24.2523 10.9277 27.5956 10.9277 32.2046C10.9277 36.5867 11.9657 39.8356 14.0418 41.9512C16.1178 44.029 19.1565 45.1623 23.1576 45.3512L31.6506 45.4079H39.4641V36.9646H36.6616L48.5233 29.5979V52.7746H23.6672Z" fill="#42D9C8"/>
<path d="M23.84 29.2281C25.4858 29.2281 26.82 27.8928 26.82 26.2456C26.82 24.5985 25.4858 23.2632 23.84 23.2632C22.1942 23.2632 20.86 24.5985 20.86 26.2456C20.86 27.8928 22.1942 29.2281 23.84 29.2281Z" fill="white"/>
<path d="M22.35 41.3816V34.0746H25.032V41.3816H22.35ZM19.8915 38.9956V36.4605H27.4905V38.9956H19.8915Z" fill="white"/>
</svg>
