<svg viewBox="0 0 25 15" xmlns="http://www.w3.org/2000/svg">
<path d="M12.5002 8.6875C13.2369 8.6875 13.9435 8.43728 14.4644 7.99188C14.9853 7.54648 15.278 6.94239 15.278 6.3125C15.278 5.68261 14.9853 5.07852 14.4644 4.63312C13.9435 4.18772 13.2369 3.9375 12.5002 3.9375C12.4568 3.9375 12.4186 3.94641 12.3765 3.94826C12.5104 4.26344 12.5363 4.60472 12.4513 4.93206C12.3663 5.25939 12.1738 5.55921 11.8965 5.79631C11.6192 6.03341 11.2685 6.19796 10.8857 6.27066C10.5028 6.34336 10.1037 6.32118 9.73503 6.20674C9.73503 6.24385 9.72244 6.2765 9.72244 6.3125C9.72244 6.62439 9.79429 6.93323 9.93389 7.22137C10.0735 7.50952 10.2781 7.77134 10.536 7.99188C11.057 8.43728 11.7635 8.6875 12.5002 8.6875ZM24.8492 6.9582C22.4954 3.03166 17.8357 0.375 12.5002 0.375C7.16472 0.375 2.50369 3.03352 0.151262 6.95857C0.0519747 7.1265 0.000244141 7.31202 0.000244141 7.50019C0.000244141 7.68835 0.0519747 7.87387 0.151262 8.0418C2.50499 11.9683 7.16472 14.625 12.5002 14.625C17.8357 14.625 22.4967 11.9665 24.8492 8.04143C24.9485 7.8735 25.0002 7.68798 25.0002 7.49981C25.0002 7.31165 24.9485 7.12613 24.8492 6.9582ZM12.5002 1.5625C13.599 1.5625 14.6731 1.84108 15.5867 2.36302C16.5003 2.88496 17.2124 3.6268 17.6329 4.49475C18.0534 5.3627 18.1634 6.31777 17.949 7.23918C17.7347 8.16059 17.2055 9.00696 16.4286 9.67126C15.6516 10.3356 14.6617 10.788 13.5841 10.9712C12.5064 11.1545 11.3893 11.0604 10.3742 10.7009C9.35906 10.3414 8.4914 9.73259 7.88094 8.95146C7.27049 8.17032 6.94466 7.25196 6.94466 6.3125C6.94627 5.05314 7.5321 3.84576 8.57362 2.95526C9.61514 2.06476 11.0273 1.56388 12.5002 1.5625ZM12.5002 13.4375C7.8405 13.4375 3.58269 11.1623 1.38911 7.5C2.6228 5.42926 4.59574 3.74825 7.02192 2.70064C6.11611 3.70334 5.55578 4.94576 5.55578 6.3125C5.55578 7.88722 6.28742 9.39745 7.58976 10.5109C8.89209 11.6244 10.6584 12.25 12.5002 12.25C14.342 12.25 16.1083 11.6244 17.4107 10.5109C18.713 9.39745 19.4447 7.88722 19.4447 6.3125C19.4447 4.94576 18.8843 3.70334 17.9785 2.70064C20.4047 3.74825 22.3776 5.42926 23.6113 7.5C21.4182 11.1623 17.1599 13.4375 12.5002 13.4375Z" />
</svg>
