<svg data-name="ps-symbols-outline" viewBox="0 0 77 77" xmlns="http://www.w3.org/2000/svg">
<path fill-rule="evenodd" clip-rule="evenodd" d="M42.5364 45.1894C42.5364 44.4858 42.8159 43.8111 43.3134 43.3136C43.8109 42.8161 44.4857 42.5366 45.1892 42.5366H73.4858C74.1893 42.5366 74.8641 42.8161 75.3616 43.3136C75.8591 43.8111 76.1386 44.4858 76.1386 45.1894V73.4859C76.1386 74.1895 75.8591 74.8642 75.3616 75.3617C74.8641 75.8592 74.1893 76.1387 73.4858 76.1387H45.1892C44.4857 76.1387 43.8109 75.8592 43.3134 75.3617C42.8159 74.8642 42.5364 74.1895 42.5364 73.4859V45.1894ZM47.842 47.8422V70.8331H70.833V47.8422H47.842ZM18.6613 0.0917974C19.132 0.0914902 19.5944 0.216477 20.001 0.453927C20.4075 0.691376 20.7435 1.03273 20.9745 1.44296L36.8913 29.7395C37.1187 30.1433 37.2363 30.5995 37.2325 31.0629C37.2287 31.5263 37.1036 31.9806 36.8696 32.3806C36.6356 32.7806 36.3009 33.1123 35.8989 33.3427C35.4968 33.5731 35.0414 33.6942 34.578 33.6939H2.74447C2.28107 33.6942 1.82568 33.5731 1.42364 33.3427C1.02159 33.1123 0.686918 32.7806 0.452938 32.3806C0.218958 31.9806 0.0938345 31.5263 0.090025 31.0629C0.0862154 30.5995 0.203853 30.1433 0.431225 29.7395L16.348 1.44296C16.579 1.03273 16.915 0.691376 17.3216 0.453927C17.7281 0.216477 18.1905 0.0914902 18.6613 0.0917974ZM7.27898 28.3883H30.0435L18.6613 8.15631L7.27898 28.3883ZM42.5364 16.8929C42.5364 14.6865 42.971 12.5018 43.8153 10.4634C44.6597 8.42497 45.8972 6.57284 47.4574 5.01271C49.0175 3.45259 50.8696 2.21503 52.908 1.3707C54.9464 0.526369 57.1312 0.091797 59.3375 0.091797C61.5439 0.091797 63.7286 0.526369 65.767 1.3707C67.8054 2.21503 69.6575 3.45259 71.2177 5.01271C72.7778 6.57284 74.0153 8.42497 74.8597 10.4634C75.704 12.5018 76.1386 14.6865 76.1386 16.8929C76.1386 21.3488 74.3685 25.6222 71.2177 28.773C68.0668 31.9238 63.7934 33.6939 59.3375 33.6939C54.8816 33.6939 50.6082 31.9238 47.4574 28.773C44.3066 25.6222 42.5364 21.3488 42.5364 16.8929ZM59.3375 5.39739C56.2887 5.39739 53.3648 6.60852 51.209 8.76434C49.0532 10.9202 47.842 13.8441 47.842 16.8929C47.842 19.9416 49.0532 22.8656 51.209 25.0214C53.3648 27.1772 56.2887 28.3883 59.3375 28.3883C62.3863 28.3883 65.3102 27.1772 67.466 25.0214C69.6218 22.8656 70.833 19.9416 70.833 16.8929C70.833 13.8441 69.6218 10.9202 67.466 8.76434C65.3102 6.60852 62.3863 5.39739 59.3375 5.39739ZM0.869821 43.3147C1.36722 42.818 2.04147 42.5389 2.74447 42.5389C3.44746 42.5389 4.12171 42.818 4.61911 43.3147L32.9156 71.6113C33.1763 71.8541 33.3853 72.147 33.5303 72.4724C33.6753 72.7978 33.7533 73.1491 33.7595 73.5053C33.7658 73.8615 33.7003 74.2153 33.5669 74.5456C33.4335 74.8759 33.2349 75.176 32.983 75.4279C32.7311 75.6798 32.431 75.8784 32.1007 76.0118C31.7704 76.1452 31.4166 76.2107 31.0604 76.2045C30.7042 76.1982 30.3529 76.1202 30.0275 75.9752C29.7021 75.8302 29.4092 75.6212 29.1663 75.3605L0.869821 47.064C0.373039 46.5666 0.0940011 45.8924 0.0940011 45.1894C0.0940011 44.4864 0.373039 43.8121 0.869821 43.3147Z"/>
<path fill-rule="evenodd" clip-rule="evenodd" d="M32.9156 43.3148C33.4124 43.8122 33.6914 44.4864 33.6914 45.1894C33.6914 45.8924 33.4124 46.5666 32.9156 47.064L4.61911 75.3606C4.11623 75.8292 3.45109 76.0843 2.76384 76.0721C2.07658 76.06 1.42086 75.7816 0.934824 75.2956C0.448785 74.8095 0.170376 74.1538 0.15825 73.4665C0.146124 72.7793 0.401229 72.1142 0.869819 71.6113L29.1663 43.3148C29.6637 42.818 30.338 42.5389 31.041 42.5389C31.744 42.5389 32.4182 42.818 32.9156 43.3148Z"/>
</svg>
